HIERARCHY
ROOT Hips
{
	OFFSET 0.000000 0.000000 0.000000
	CHANNELS 6 Xposition Yposition Zposition Xrotation Yrotation Zrotation
	JOINT LeftUpLeg_virtual
	{
		OFFSET 0.000000 0.000000 0.000000
		CHANNELS 3 Xrotation Yrotation Zrotation
		JOINT LeftUpLeg
		{
			OFFSET 10.205400 -3.823500 0.155100
			CHANNELS 3 Xrotation Yrotation Zrotation
			JOINT LeftLeg
			{
				OFFSET 0.708757 -12.982077 0.567790
				CHANNELS 3 Xrotation Yrotation Zrotation
				JOINT LeftFoot
				{
					OFFSET -0.708756 -10.717838 -2.184338
					CHANNELS 3 Xrotation Yrotation Zrotation
					JOINT LeftToeBase
					{
						OFFSET 0.108149 -7.191104 7.560241
						CHANNELS 3 Xrotation Yrotation Zrotation
						JOINT LeftToe_End
						{
							OFFSET 0.070230 0.081724 4.490308
							CHANNELS 3 Xrotation Yrotation Zrotation
							End Site
							{
								OFFSET 0 0 0
							}
						}
					}
				}
			}
		}
	}
	JOINT RightUpLeg_virtual
	{
		OFFSET 0.000000 0.000000 0.000000
		CHANNELS 3 Xrotation Yrotation Zrotation
		JOINT RightUpLeg
		{
			OFFSET -10.205400 -3.823500 0.005500
			CHANNELS 3 Xrotation Yrotation Zrotation
			JOINT RightLeg
			{
				OFFSET -0.708756 -12.982134 0.610632
				CHANNELS 3 Xrotation Yrotation Zrotation
				JOINT RightFoot
				{
					OFFSET 0.708754 -10.717769 -1.945823
					CHANNELS 3 Xrotation Yrotation Zrotation
					JOINT RightToeBase
					{
						OFFSET -0.108140 -7.191069 7.372968
						CHANNELS 3 Xrotation Yrotation Zrotation
						JOINT RightToe_End
						{
							OFFSET -0.070227 0.081735 4.479403
							CHANNELS 3 Xrotation Yrotation Zrotation
							End Site
							{
								OFFSET 0 0 0
							}
						}
					}
				}
			}
		}
	}
	JOINT Spine_virtual
	{
		OFFSET 0.000000 0.000000 0.000000
		CHANNELS 3 Xrotation Yrotation Zrotation
		JOINT Spine
		{
			OFFSET 0.000000 6.876099 0.125700
			CHANNELS 3 Xrotation Yrotation Zrotation
			JOINT Spine1
			{
				OFFSET 0.000000 5.730043 0.104720
				CHANNELS 3 Xrotation Yrotation Zrotation
				JOINT Spine1_split
				{
					OFFSET 0.000000 5.730043 0.104720
					CHANNELS 3 Xrotation Yrotation Zrotation
					JOINT Spine2
					{
						OFFSET 0.000000 5.730043 0.104720
						CHANNELS 3 Xrotation Yrotation Zrotation
						JOINT Neck_virtual
						{
							OFFSET 0.000000 0.000000 0.000000
							CHANNELS 3 Xrotation Yrotation Zrotation
							JOINT Neck
							{
								OFFSET 0.000000 10.314075 0.188496
								CHANNELS 3 Xrotation Yrotation Zrotation
								JOINT Head
								{
									OFFSET 0.000000 7.643700 -2.377400
									CHANNELS 3 Xrotation Yrotation Zrotation
									JOINT HeadTop_End
									{
										OFFSET 0.000000 43.788605 -13.619600
										CHANNELS 3 Xrotation Yrotation Zrotation
										End Site
										{
											OFFSET 0 0 0
										}
									}
								}
							}
						}
						JOINT LeftShoulder_virtual
						{
							OFFSET 0.000000 0.000000 0.000000
							CHANNELS 3 Xrotation Yrotation Zrotation
							JOINT LeftShoulder
							{
								OFFSET 2.196100 4.412489 0.087492
								CHANNELS 3 Xrotation Yrotation Zrotation
								JOINT LeftShoulder_split
								{
									OFFSET 2.196100 4.412489 0.087492
									CHANNELS 3 Xrotation Yrotation Zrotation
									JOINT LeftArm
									{
										OFFSET 8.771219 -2.981674 -0.026999
										CHANNELS 3 Xrotation Yrotation Zrotation
										JOINT LeftForeArm
										{
											OFFSET 8.512804 0.000000 -0.000000
											CHANNELS 3 Xrotation Yrotation Zrotation
											JOINT LeftHand
											{
												OFFSET 18.484802 0.000000 -0.000000
												CHANNELS 3 Xrotation Yrotation Zrotation
												End Site
												{
													OFFSET 0 0 0
												}
											}
										}
									}
								}
							}
						}
						JOINT RightShoulder_virtual
						{
							OFFSET 0.000000 0.000000 0.000000
							CHANNELS 3 Xrotation Yrotation Zrotation
							JOINT RightShoulder
							{
								OFFSET -2.196100 4.412496 0.070690
								CHANNELS 3 Xrotation Yrotation Zrotation
								JOINT RightShoulder_split
								{
									OFFSET -2.196100 4.412496 0.070690
									CHANNELS 3 Xrotation Yrotation Zrotation
									JOINT RightArm
									{
										OFFSET -8.771282 -2.981682 -0.094208
										CHANNELS 3 Xrotation Yrotation Zrotation
										JOINT RightForeArm
										{
											OFFSET -8.494598 0.000000 0.000000
											CHANNELS 3 Xrotation Yrotation Zrotation
											JOINT RightHand
											{
												OFFSET -18.483803 0.000000 0.000001
												CHANNELS 3 Xrotation Yrotation Zrotation
												End Site
												{
													OFFSET 0 0 0
												}
											}
										}
									}
								}
							}
						}
					}
				}
			}
		}
	}
}
MOTION
Frames: 5
Frame Time: 0.03333333
0.780614 19.145651 5.892477 0.000000 0.000000 0.000000 8.127649 7.399530 1.615146 -102.685112 -10.088433 10.537063 93.740706 3.745416 -0.788785 10.344387 -5.787282 -13.720202 -4.771567 0.492912 0.278883 0.000000 0.000000 0.000000 7.860896 7.707193 1.675841 -101.258811 17.537766 -13.990568 94.770985 -2.973204 -2.001083 6.828826 0.069574 12.355004 2.860124 1.269444 -1.220795 0.000000 0.000000 0.000000 8.953756 5.172873 1.230249 5.524827 -2.448615 -2.725689 15.586300 -1.158900 -0.759682 1.069631 0.342989 0.226276 0.000000 0.000000 0.000000 16.852114 -1.187383 -0.570430 -2.077247 -2.756968 -1.313216 -52.876674 2.616805 -8.186076 0.000000 0.000000 0.000000 16.253736 -1.419950 -0.411298 0.575329 -15.790248 4.428839 -4.210749 -4.751409 -1.729362 -61.007789 -27.726453 -15.577180 177.029966 -69.707176 178.795761 0.000000 0.000000 0.000000 15.182607 -1.713719 -0.491079 1.610277 14.572847 -2.801288 3.928832 0.139608 4.153294 -85.596033 29.613750 30.317325 -178.476108 53.856212 175.108237 0.000000 0.000000 0.000000 
0.765937 19.173656 5.845365 0.000000 0.000000 0.000000 8.581337 7.144426 1.364035 -102.911806 -10.488195 10.519242 93.323695 3.603519 -0.653076 10.370487 -5.980867 -13.732163 -4.649137 0.524222 0.251513 0.000000 0.000000 0.000000 8.287362 7.483772 1.429014 -101.404868 17.417064 -13.687820 94.206764 -3.028381 -2.187387 6.670942 0.112697 12.506049 3.006324 1.242372 -1.176391 0.000000 0.000000 0.000000 9.410817 5.190922 0.964365 5.378697 -2.458047 -2.687087 15.935006 -1.182655 -0.670122 0.769199 0.264527 0.224722 0.000000 0.000000 0.000000 17.140971 -1.131826 -0.560452 0.052658 -2.864469 -1.356495 -51.746411 3.032305 -8.027146 0.000000 0.000000 0.000000 16.638846 -1.397079 -0.361688 0.551738 -14.751291 5.231305 -3.758608 -4.559853 -1.603747 -60.057840 -26.994984 -15.734662 177.558363 -68.952918 179.500991 0.000000 0.000000 0.000000 15.712382 -1.689665 -0.441492 1.354084 13.611817 -2.305414 3.303162 0.800726 3.986410 -84.035041 30.212871 29.506745 -178.406918 54.094873 175.288377 0.000000 0.000000 0.000000 
0.735262 19.193230 5.818086 0.000000 0.000000 0.000000 9.079841 6.904934 1.183884 -103.125584 -10.794342 10.394652 92.892191 3.546243 -0.545510 10.355345 -6.087210 -13.708991 -4.561816 0.544091 0.276574 0.000000 0.000000 0.000000 8.780412 7.354252 1.238744 -101.565767 17.388849 -13.445509 93.605010 -3.114115 -2.310641 6.544941 0.075836 12.562768 3.069328 1.211468 -1.051392 0.000000 0.000000 0.000000 9.906565 5.323507 0.693181 5.316626 -2.471499 -2.625726 16.444374 -1.152784 -0.642629 0.574204 0.371764 0.355240 0.000000 0.000000 0.000000 17.505778 -1.040216 -0.599040 2.907401 -2.927703 -1.594317 -50.308213 3.160956 -8.080039 0.000000 0.000000 0.000000 17.219061 -1.339819 -0.380550 0.565907 -14.119575 6.081045 -2.928254 -4.815369 -1.510797 -57.194433 -25.539940 -15.737763 178.248485 -67.521993 -179.627732 0.000000 0.000000 0.000000 16.475067 -1.594974 -0.453769 1.091571 12.858840 -1.597533 2.933688 1.629500 3.892736 -81.062686 31.260147 28.257638 -178.352659 54.956662 175.483297 0.000000 0.000000 0.000000 
0.695873 19.192753 5.811684 0.000000 0.000000 0.000000 9.593787 6.699732 1.113675 -103.329199 -10.925122 10.203847 92.572101 3.588121 -0.511577 10.299004 -6.054272 -13.628185 -4.539629 0.552991 0.352123 0.000000 0.000000 0.000000 9.305368 7.340809 1.146371 -101.780535 17.453001 -13.338334 93.114637 -3.205417 -2.352949 6.488451 0.000696 12.576760 2.995108 1.180625 -0.893538 0.000000 0.000000 0.000000 10.396439 5.522989 0.492625 5.307145 -2.495319 -2.583152 16.939771 -1.100957 -0.671912 0.506543 0.359664 0.435081 0.000000 0.000000 0.000000 17.823425 -0.941038 -0.672084 5.960211 -2.922784 -2.017269 -48.927657 2.960805 -8.369969 0.000000 0.000000 0.000000 17.778450 -1.267571 -0.465785 0.599713 -13.947214 6.746054 -1.898429 -5.577759 -1.537684 -52.899313 -24.113382 -15.459927 178.802850 -65.670575 -178.923595 0.000000 0.000000 0.000000 17.231046 -1.461745 -0.503786 0.890442 12.379544 -0.887092 2.681280 2.127098 3.824811 -77.175428 32.488450 26.587218 -178.408393 56.051579 175.787172 0.000000 0.000000 0.000000 
0.654159 19.176928 5.847149 0.000000 0.000000 0.000000 10.086732 6.598621 1.153493 -103.540593 -10.853568 10.024386 92.446781 3.711920 -0.566874 10.202725 -5.860787 -13.508068 -4.534189 0.556404 0.449242 0.000000 0.000000 0.000000 9.830188 7.433377 1.157227 -102.065142 17.596700 -13.403133 92.816752 -3.280083 -2.302263 6.485068 -0.072289 12.599035 2.877641 1.160293 -0.757689 0.000000 0.000000 0.000000 10.857056 5.768484 0.405518 5.335154 -2.533188 -2.582203 17.226120 -1.065043 -0.733921 0.647689 0.396229 0.541628 0.000000 0.000000 0.000000 17.964074 -0.857297 -0.731669 8.592432 -2.831317 -2.530328 -47.885818 2.546488 -8.866741 0.000000 0.000000 0.000000 18.094631 -1.215848 -0.576240 0.641710 -14.320592 7.147565 -1.087759 -6.295930 -1.575460 -48.516295 -23.193031 -14.718376 179.055649 -64.024322 -178.575993 0.000000 0.000000 0.000000 17.713677 -1.330093 -0.554903 0.769066 12.179236 -0.437053 2.457734 2.253109 3.781437 -73.286857 33.551057 24.735634 -178.596756 56.701717 176.160961 0.000000 0.000000 0.000000 
